<svg xmlns="http://www.w3.org/2000/svg" width="980" height="316" viewBox="0 0 980 316" role="img" aria-label="Yurii Dmytrenko, full-stack developer from Ukraine">
<style>text{font-family:ui-monospace,SFMono-Regular,'SF Mono',Menlo,Consolas,'Liberation Mono',monospace;}</style>
<rect x="1" y="1" width="978" height="314" rx="12" fill="#0d1117" stroke="#30363d"/>
<path d="M1 13a12 12 0 0 1 12-12h954a12 12 0 0 1 12 12v27H1z" fill="#161b22"/>
<line x1="1" y1="40" x2="979" y2="40" stroke="#30363d"/>
<circle cx="24" cy="20" r="6" fill="#ff5f57"/>
<circle cx="44" cy="20" r="6" fill="#febc2e"/>
<circle cx="64" cy="20" r="6" fill="#28c840"/>
<text x="490.0" y="25" text-anchor="middle" font-size="12.5" fill="#8b949e">yurii@github: ~</text>
<linearGradient id="flagdark" gradientUnits="userSpaceOnUse" x1="0" y1="69.3" x2="0" y2="286.7"><stop offset="0" stop-color="#0057B7"/><stop offset="0.5" stop-color="#0057B7"/><stop offset="0.5" stop-color="#FFD700"/><stop offset="1" stop-color="#FFD700"/></linearGradient>
  <g fill="url(#flagdark)" shape-rendering="crispEdges">
  <rect x="225.8" y="69.3" width="6.3" height="3.1" opacity="0.46"/>
  <rect x="232.2" y="69.3" width="6.3" height="3.1" opacity="0.24"/>
  <rect x="238.4" y="69.3" width="3.1" height="3.1" opacity="0.46"/>
  <rect x="241.6" y="69.3" width="6.3" height="3.1" opacity="0.72"/>
  <rect x="247.9" y="69.3" width="3.1" height="3.1" opacity="1.0"/>
  <rect x="251.0" y="69.3" width="3.1" height="3.1" opacity="0.72"/>
  <rect x="222.7" y="72.5" width="3.1" height="3.1" opacity="0.24"/>
  <rect x="225.8" y="72.5" width="28.3" height="3.1" opacity="1.0"/>
  <rect x="254.2" y="72.5" width="3.1" height="3.1" opacity="0.46"/>
  <rect x="200.7" y="75.6" width="3.1" height="3.1" opacity="0.46"/>
  <rect x="203.8" y="75.6" width="6.3" height="3.1" opacity="0.72"/>
  <rect x="210.1" y="75.6" width="9.4" height="3.1" opacity="1.0"/>
  <rect x="219.5" y="75.6" width="3.1" height="3.1" opacity="0.72"/>
  <rect x="222.7" y="75.6" width="34.6" height="3.1" opacity="1.0"/>
  <rect x="257.4" y="75.6" width="3.1" height="3.1" opacity="0.24"/>
  <rect x="84.1" y="78.8" width="9.4" height="3.1" opacity="0.24"/>
  <rect x="93.5" y="78.8" width="9.4" height="3.1" opacity="0.46"/>
  <rect x="103.0" y="78.8" width="3.1" height="3.1" opacity="0.24"/>
  <rect x="197.5" y="78.8" width="63.0" height="3.1" opacity="1.0"/>
  <rect x="80.9" y="81.9" width="3.1" height="3.1" opacity="0.72"/>
  <rect x="84.1" y="81.9" width="28.3" height="3.1" opacity="1.0"/>
  <rect x="112.5" y="81.9" width="6.3" height="3.1" opacity="0.72"/>
  <rect x="118.8" y="81.9" width="3.1" height="3.1" opacity="0.46"/>
  <rect x="194.3" y="81.9" width="3.1" height="3.1" opacity="0.72"/>
  <rect x="197.5" y="81.9" width="66.1" height="3.1" opacity="1.0"/>
  <rect x="74.7" y="85.1" width="3.1" height="3.1" opacity="0.24"/>
  <rect x="77.8" y="85.1" width="47.2" height="3.1" opacity="1.0"/>
  <rect x="125.0" y="85.1" width="3.1" height="3.1" opacity="0.72"/>
  <rect x="128.2" y="85.1" width="3.1" height="3.1" opacity="0.46"/>
  <rect x="194.3" y="85.1" width="66.1" height="3.1" opacity="1.0"/>
  <rect x="260.5" y="85.1" width="3.1" height="3.1" opacity="0.72"/>
  <rect x="65.2" y="88.2" width="3.1" height="3.1" opacity="0.46"/>
  <rect x="68.3" y="88.2" width="6.3" height="3.1" opacity="0.72"/>
  <rect x="74.7" y="88.2" width="59.9" height="3.1" opacity="1.0"/>
  <rect x="134.5" y="88.2" width="3.1" height="3.1" opacity="0.72"/>
  <rect x="137.6" y="88.2" width="15.8" height="3.1" opacity="0.46"/>
  <rect x="162.8" y="88.2" width="3.1" height="3.1" opacity="0.46"/>
  <rect x="166.0" y="88.2" width="3.1" height="3.1" opacity="0.24"/>
  <rect x="194.3" y="88.2" width="66.1" height="3.1" opacity="1.0"/>
  <rect x="65.2" y="91.4" width="3.1" height="3.1" opacity="0.46"/>
  <rect x="68.3" y="91.4" width="88.2" height="3.1" opacity="1.0"/>
  <rect x="156.6" y="91.4" width="3.1" height="3.1" opacity="0.46"/>
  <rect x="159.7" y="91.4" width="3.1" height="3.1" opacity="0.72"/>
  <rect x="162.8" y="91.4" width="6.3" height="3.1" opacity="1.0"/>
  <rect x="194.3" y="91.4" width="66.1" height="3.1" opacity="1.0"/>
  <rect x="68.3" y="94.5" width="100.8" height="3.1" opacity="1.0"/>
  <rect x="169.2" y="94.5" width="6.3" height="3.1" opacity="0.72"/>
  <rect x="175.4" y="94.5" width="12.6" height="3.1" opacity="1.0"/>
  <rect x="188.0" y="94.5" width="3.1" height="3.1" opacity="0.72"/>
  <rect x="191.2" y="94.5" width="3.1" height="3.1" opacity="0.46"/>
  <rect x="194.3" y="94.5" width="66.1" height="3.1" opacity="1.0"/>
  <rect x="68.3" y="97.7" width="3.1" height="3.1" opacity="0.72"/>
  <rect x="71.5" y="97.7" width="189.0" height="3.1" opacity="1.0"/>
  <rect x="260.5" y="97.7" width="6.3" height="3.1" opacity="0.72"/>
  <rect x="266.8" y="97.7" width="6.3" height="3.1" opacity="0.46"/>
  <rect x="273.1" y="97.7" width="3.1" height="3.1" opacity="0.24"/>
  <rect x="68.3" y="100.8" width="3.1" height="3.1" opacity="0.24"/>
  <rect x="71.5" y="100.8" width="204.8" height="3.1" opacity="1.0"/>
  <rect x="276.2" y="100.8" width="3.1" height="3.1" opacity="0.24"/>
  <rect x="71.5" y="104.0" width="204.8" height="3.1" opacity="1.0"/>
  <rect x="276.2" y="104.0" width="3.1" height="3.1" opacity="0.72"/>
  <rect x="71.5" y="107.1" width="3.1" height="3.1" opacity="0.46"/>
  <rect x="74.7" y="107.1" width="204.8" height="3.1" opacity="1.0"/>
  <rect x="279.4" y="107.1" width="3.1" height="3.1" opacity="0.24"/>
  <rect x="74.7" y="110.3" width="207.9" height="3.1" opacity="1.0"/>
  <rect x="74.7" y="113.4" width="204.8" height="3.1" opacity="1.0"/>
  <rect x="279.4" y="113.4" width="3.1" height="3.1" opacity="0.72"/>
  <rect x="71.5" y="116.6" width="3.1" height="3.1" opacity="0.24"/>
  <rect x="74.7" y="116.6" width="207.9" height="3.1" opacity="1.0"/>
  <rect x="282.5" y="116.6" width="3.1" height="3.1" opacity="0.46"/>
  <rect x="68.3" y="119.7" width="3.1" height="3.1" opacity="0.24"/>
  <rect x="71.5" y="119.7" width="3.1" height="3.1" opacity="0.72"/>
  <rect x="74.7" y="119.7" width="214.2" height="3.1" opacity="1.0"/>
  <rect x="288.9" y="119.7" width="3.1" height="3.1" opacity="0.72"/>
  <rect x="292.0" y="119.7" width="3.1" height="3.1" opacity="0.24"/>
  <rect x="62.0" y="122.9" width="3.1" height="3.1" opacity="0.46"/>
  <rect x="65.2" y="122.9" width="229.9" height="3.1" opacity="1.0"/>
  <rect x="295.1" y="122.9" width="3.1" height="3.1" opacity="0.72"/>
  <rect x="298.3" y="122.9" width="3.1" height="3.1" opacity="0.46"/>
  <rect x="307.8" y="122.9" width="3.1" height="3.1" opacity="0.24"/>
  <rect x="310.9" y="122.9" width="3.1" height="3.1" opacity="0.72"/>
  <rect x="314.1" y="122.9" width="6.3" height="3.1" opacity="1.0"/>
  <rect x="58.9" y="126.0" width="3.1" height="3.1" opacity="0.24"/>
  <rect x="62.0" y="126.0" width="258.3" height="3.1" opacity="1.0"/>
  <rect x="320.3" y="126.0" width="3.1" height="3.1" opacity="0.72"/>
  <rect x="58.9" y="129.2" width="264.6" height="3.1" opacity="1.0"/>
  <rect x="323.5" y="129.2" width="3.1" height="3.1" opacity="0.72"/>
  <rect x="55.8" y="132.3" width="3.1" height="3.1" opacity="0.72"/>
  <rect x="58.9" y="132.3" width="267.8" height="3.1" opacity="1.0"/>
  <rect x="326.6" y="132.3" width="3.1" height="3.1" opacity="0.72"/>
  <rect x="329.8" y="132.3" width="12.6" height="3.1" opacity="0.24"/>
  <rect x="52.6" y="135.5" width="3.1" height="3.1" opacity="0.24"/>
  <rect x="55.8" y="135.5" width="289.8" height="3.1" opacity="1.0"/>
  <rect x="345.6" y="135.5" width="3.1" height="3.1" opacity="0.46"/>
  <rect x="348.7" y="135.5" width="3.1" height="3.1" opacity="0.24"/>
  <rect x="52.6" y="138.6" width="302.4" height="3.1" opacity="1.0"/>
  <rect x="355.0" y="138.6" width="3.1" height="3.1" opacity="0.46"/>
  <rect x="358.1" y="138.6" width="3.1" height="3.1" opacity="0.24"/>
  <rect x="49.5" y="141.8" width="3.1" height="3.1" opacity="0.72"/>
  <rect x="52.6" y="141.8" width="311.8" height="3.1" opacity="1.0"/>
  <rect x="364.4" y="141.8" width="3.1" height="3.1" opacity="0.46"/>
  <rect x="46.3" y="144.9" width="3.1" height="3.1" opacity="0.46"/>
  <rect x="49.5" y="144.9" width="318.1" height="3.1" opacity="1.0"/>
  <rect x="46.3" y="148.1" width="3.1" height="3.1" opacity="0.46"/>
  <rect x="49.5" y="148.1" width="318.1" height="3.1" opacity="1.0"/>
  <rect x="49.5" y="151.2" width="318.1" height="3.1" opacity="1.0"/>
  <rect x="49.5" y="154.4" width="3.1" height="3.1" opacity="0.72"/>
  <rect x="52.6" y="154.4" width="311.8" height="3.1" opacity="1.0"/>
  <rect x="364.4" y="154.4" width="3.1" height="3.1" opacity="0.24"/>
  <rect x="46.3" y="157.5" width="3.1" height="3.1" opacity="0.72"/>
  <rect x="49.5" y="157.5" width="311.8" height="3.1" opacity="1.0"/>
  <rect x="361.3" y="157.5" width="3.1" height="3.1" opacity="0.72"/>
  <rect x="43.1" y="160.7" width="3.1" height="3.1" opacity="0.46"/>
  <rect x="46.3" y="160.7" width="315.0" height="3.1" opacity="1.0"/>
  <rect x="361.3" y="160.7" width="3.1" height="3.1" opacity="0.24"/>
  <rect x="43.1" y="163.8" width="315.0" height="3.1" opacity="1.0"/>
  <rect x="358.1" y="163.8" width="3.1" height="3.1" opacity="0.72"/>
  <rect x="40.0" y="167.0" width="3.1" height="3.1" opacity="0.46"/>
  <rect x="43.1" y="167.0" width="315.0" height="3.1" opacity="1.0"/>
  <rect x="358.1" y="167.0" width="3.1" height="3.1" opacity="0.72"/>
  <rect x="40.0" y="170.1" width="3.1" height="3.1" opacity="0.72"/>
  <rect x="43.1" y="170.1" width="318.1" height="3.1" opacity="1.0"/>
  <rect x="40.0" y="173.3" width="94.5" height="3.1" opacity="1.0"/>
  <rect x="134.5" y="173.3" width="6.3" height="3.1" opacity="0.72"/>
  <rect x="140.8" y="173.3" width="220.5" height="3.1" opacity="1.0"/>
  <rect x="361.3" y="173.3" width="3.1" height="3.1" opacity="0.24"/>
  <rect x="40.0" y="176.4" width="3.1" height="3.1" opacity="0.24"/>
  <rect x="43.1" y="176.4" width="81.9" height="3.1" opacity="1.0"/>
  <rect x="125.0" y="176.4" width="3.1" height="3.1" opacity="0.46"/>
  <rect x="128.2" y="176.4" width="3.1" height="3.1" opacity="0.24"/>
  <rect x="140.8" y="176.4" width="3.1" height="3.1" opacity="0.24"/>
  <rect x="143.9" y="176.4" width="3.1" height="3.1" opacity="0.72"/>
  <rect x="147.1" y="176.4" width="214.2" height="3.1" opacity="1.0"/>
  <rect x="361.3" y="176.4" width="3.1" height="3.1" opacity="0.72"/>
  <rect x="46.3" y="179.6" width="3.1" height="3.1" opacity="0.72"/>
  <rect x="49.5" y="179.6" width="66.1" height="3.1" opacity="1.0"/>
  <rect x="115.6" y="179.6" width="6.3" height="3.1" opacity="0.72"/>
  <rect x="121.9" y="179.6" width="3.1" height="3.1" opacity="0.24"/>
  <rect x="147.1" y="179.6" width="3.1" height="3.1" opacity="0.46"/>
  <rect x="150.2" y="179.6" width="211.0" height="3.1" opacity="1.0"/>
  <rect x="361.3" y="179.6" width="3.1" height="3.1" opacity="0.72"/>
  <rect x="49.5" y="182.7" width="3.1" height="3.1" opacity="0.72"/>
  <rect x="52.6" y="182.7" width="6.3" height="3.1" opacity="1.0"/>
  <rect x="58.9" y="182.7" width="3.1" height="3.1" opacity="0.72"/>
  <rect x="62.0" y="182.7" width="50.4" height="3.1" opacity="1.0"/>
  <rect x="112.5" y="182.7" width="3.1" height="3.1" opacity="0.24"/>
  <rect x="153.4" y="182.7" width="3.1" height="3.1" opacity="0.24"/>
  <rect x="156.6" y="182.7" width="3.1" height="3.1" opacity="0.46"/>
  <rect x="159.7" y="182.7" width="201.6" height="3.1" opacity="1.0"/>
  <rect x="361.3" y="182.7" width="3.1" height="3.1" opacity="0.46"/>
  <rect x="49.5" y="185.9" width="3.1" height="3.1" opacity="0.72"/>
  <rect x="52.6" y="185.9" width="3.1" height="3.1" opacity="1.0"/>
  <rect x="55.8" y="185.9" width="3.1" height="3.1" opacity="0.24"/>
  <rect x="65.2" y="185.9" width="3.1" height="3.1" opacity="0.24"/>
  <rect x="68.3" y="185.9" width="3.1" height="3.1" opacity="0.46"/>
  <rect x="71.5" y="185.9" width="9.4" height="3.1" opacity="0.72"/>
  <rect x="80.9" y="185.9" width="25.2" height="3.1" opacity="1.0"/>
  <rect x="106.1" y="185.9" width="3.1" height="3.1" opacity="0.72"/>
  <rect x="109.3" y="185.9" width="3.1" height="3.1" opacity="0.46"/>
  <rect x="162.8" y="185.9" width="198.4" height="3.1" opacity="1.0"/>
  <rect x="361.3" y="185.9" width="3.1" height="3.1" opacity="0.24"/>
  <rect x="49.5" y="189.0" width="3.1" height="3.1" opacity="0.24"/>
  <rect x="84.1" y="189.0" width="3.1" height="3.1" opacity="0.46"/>
  <rect x="87.2" y="189.0" width="9.4" height="3.1" opacity="1.0"/>
  <rect x="96.7" y="189.0" width="3.1" height="3.1" opacity="0.46"/>
  <rect x="99.8" y="189.0" width="3.1" height="3.1" opacity="0.24"/>
  <rect x="166.0" y="189.0" width="3.1" height="3.1" opacity="0.72"/>
  <rect x="169.2" y="189.0" width="176.4" height="3.1" opacity="1.0"/>
  <rect x="345.6" y="189.0" width="6.3" height="3.1" opacity="0.72"/>
  <rect x="351.8" y="189.0" width="9.4" height="3.1" opacity="0.46"/>
  <rect x="87.2" y="192.2" width="6.3" height="3.1" opacity="0.46"/>
  <rect x="166.0" y="192.2" width="3.1" height="3.1" opacity="0.46"/>
  <rect x="169.2" y="192.2" width="170.1" height="3.1" opacity="1.0"/>
  <rect x="339.2" y="192.2" width="3.1" height="3.1" opacity="0.72"/>
  <rect x="166.0" y="195.3" width="3.1" height="3.1" opacity="0.72"/>
  <rect x="169.2" y="195.3" width="166.9" height="3.1" opacity="1.0"/>
  <rect x="336.1" y="195.3" width="3.1" height="3.1" opacity="0.46"/>
  <rect x="166.0" y="198.5" width="3.1" height="3.1" opacity="0.72"/>
  <rect x="169.2" y="198.5" width="163.8" height="3.1" opacity="1.0"/>
  <rect x="332.9" y="198.5" width="3.1" height="3.1" opacity="0.46"/>
  <rect x="169.2" y="201.6" width="3.1" height="3.1" opacity="0.72"/>
  <rect x="172.3" y="201.6" width="160.7" height="3.1" opacity="1.0"/>
  <rect x="332.9" y="201.6" width="3.1" height="3.1" opacity="0.46"/>
  <rect x="172.3" y="204.8" width="3.1" height="3.1" opacity="0.72"/>
  <rect x="175.4" y="204.8" width="157.5" height="3.1" opacity="1.0"/>
  <rect x="332.9" y="204.8" width="3.1" height="3.1" opacity="0.24"/>
  <rect x="172.3" y="207.9" width="3.1" height="3.1" opacity="0.46"/>
  <rect x="175.4" y="207.9" width="157.5" height="3.1" opacity="1.0"/>
  <rect x="332.9" y="207.9" width="3.1" height="3.1" opacity="0.24"/>
  <rect x="172.3" y="211.1" width="3.1" height="3.1" opacity="0.24"/>
  <rect x="175.4" y="211.1" width="148.0" height="3.1" opacity="1.0"/>
  <rect x="323.5" y="211.1" width="3.1" height="3.1" opacity="0.72"/>
  <rect x="326.6" y="211.1" width="6.3" height="3.1" opacity="0.46"/>
  <rect x="175.4" y="214.2" width="138.6" height="3.1" opacity="1.0"/>
  <rect x="314.1" y="214.2" width="3.1" height="3.1" opacity="0.72"/>
  <rect x="317.2" y="214.2" width="3.1" height="3.1" opacity="0.24"/>
  <rect x="175.4" y="217.4" width="3.1" height="3.1" opacity="0.24"/>
  <rect x="178.6" y="217.4" width="132.3" height="3.1" opacity="1.0"/>
  <rect x="310.9" y="217.4" width="3.1" height="3.1" opacity="0.46"/>
  <rect x="178.6" y="220.5" width="3.1" height="3.1" opacity="0.46"/>
  <rect x="181.8" y="220.5" width="28.3" height="3.1" opacity="1.0"/>
  <rect x="210.1" y="220.5" width="3.1" height="3.1" opacity="0.72"/>
  <rect x="213.2" y="220.5" width="88.2" height="3.1" opacity="1.0"/>
  <rect x="301.4" y="220.5" width="6.3" height="3.1" opacity="0.72"/>
  <rect x="307.8" y="220.5" width="3.1" height="3.1" opacity="0.24"/>
  <rect x="178.6" y="223.7" width="3.1" height="3.1" opacity="0.24"/>
  <rect x="181.8" y="223.7" width="15.8" height="3.1" opacity="1.0"/>
  <rect x="197.5" y="223.7" width="3.1" height="3.1" opacity="0.46"/>
  <rect x="200.7" y="223.7" width="6.3" height="3.1" opacity="0.24"/>
  <rect x="213.2" y="223.7" width="3.1" height="3.1" opacity="0.72"/>
  <rect x="216.4" y="223.7" width="69.3" height="3.1" opacity="1.0"/>
  <rect x="285.7" y="223.7" width="3.1" height="3.1" opacity="0.72"/>
  <rect x="288.9" y="223.7" width="3.1" height="3.1" opacity="0.24"/>
  <rect x="162.8" y="226.8" width="6.3" height="3.1" opacity="0.46"/>
  <rect x="181.8" y="226.8" width="3.1" height="3.1" opacity="0.72"/>
  <rect x="184.9" y="226.8" width="9.4" height="3.1" opacity="1.0"/>
  <rect x="194.3" y="226.8" width="3.1" height="3.1" opacity="0.72"/>
  <rect x="213.2" y="226.8" width="3.1" height="3.1" opacity="0.46"/>
  <rect x="216.4" y="226.8" width="66.1" height="3.1" opacity="1.0"/>
  <rect x="282.5" y="226.8" width="3.1" height="3.1" opacity="0.24"/>
  <rect x="162.8" y="230.0" width="6.3" height="3.1" opacity="1.0"/>
  <rect x="169.2" y="230.0" width="12.6" height="3.1" opacity="0.46"/>
  <rect x="181.8" y="230.0" width="12.6" height="3.1" opacity="1.0"/>
  <rect x="194.3" y="230.0" width="3.1" height="3.1" opacity="0.24"/>
  <rect x="213.2" y="230.0" width="3.1" height="3.1" opacity="0.24"/>
  <rect x="216.4" y="230.0" width="59.9" height="3.1" opacity="1.0"/>
  <rect x="276.2" y="230.0" width="3.1" height="3.1" opacity="0.46"/>
  <rect x="162.8" y="233.1" width="3.1" height="3.1" opacity="0.72"/>
  <rect x="166.0" y="233.1" width="28.3" height="3.1" opacity="1.0"/>
  <rect x="219.5" y="233.1" width="3.1" height="3.1" opacity="0.24"/>
  <rect x="222.7" y="233.1" width="3.1" height="3.1" opacity="0.46"/>
  <rect x="225.8" y="233.1" width="3.1" height="3.1" opacity="0.72"/>
  <rect x="229.0" y="233.1" width="44.1" height="3.1" opacity="1.0"/>
  <rect x="273.1" y="233.1" width="3.1" height="3.1" opacity="0.46"/>
  <rect x="159.7" y="236.3" width="3.1" height="3.1" opacity="0.24"/>
  <rect x="162.8" y="236.3" width="28.3" height="3.1" opacity="1.0"/>
  <rect x="191.2" y="236.3" width="3.1" height="3.1" opacity="0.46"/>
  <rect x="232.2" y="236.3" width="3.1" height="3.1" opacity="0.24"/>
  <rect x="235.3" y="236.3" width="3.1" height="3.1" opacity="0.46"/>
  <rect x="238.4" y="236.3" width="3.1" height="3.1" opacity="0.72"/>
  <rect x="241.6" y="236.3" width="31.5" height="3.1" opacity="1.0"/>
  <rect x="273.1" y="236.3" width="3.1" height="3.1" opacity="0.46"/>
  <rect x="159.7" y="239.4" width="3.1" height="3.1" opacity="0.72"/>
  <rect x="162.8" y="239.4" width="28.3" height="3.1" opacity="1.0"/>
  <rect x="244.8" y="239.4" width="28.3" height="3.1" opacity="1.0"/>
  <rect x="273.1" y="239.4" width="3.1" height="3.1" opacity="0.46"/>
  <rect x="156.6" y="242.6" width="3.1" height="3.1" opacity="0.24"/>
  <rect x="159.7" y="242.6" width="28.3" height="3.1" opacity="1.0"/>
  <rect x="188.0" y="242.6" width="3.1" height="3.1" opacity="0.24"/>
  <rect x="247.9" y="242.6" width="25.2" height="3.1" opacity="1.0"/>
  <rect x="273.1" y="242.6" width="3.1" height="3.1" opacity="0.46"/>
  <rect x="156.6" y="245.7" width="3.1" height="3.1" opacity="0.72"/>
  <rect x="159.7" y="245.7" width="25.2" height="3.1" opacity="1.0"/>
  <rect x="184.9" y="245.7" width="3.1" height="3.1" opacity="0.46"/>
  <rect x="241.6" y="245.7" width="3.1" height="3.1" opacity="0.24"/>
  <rect x="244.8" y="245.7" width="3.1" height="3.1" opacity="0.72"/>
  <rect x="247.9" y="245.7" width="25.2" height="3.1" opacity="1.0"/>
  <rect x="273.1" y="245.7" width="3.1" height="3.1" opacity="0.72"/>
  <rect x="156.6" y="248.9" width="25.2" height="3.1" opacity="1.0"/>
  <rect x="181.8" y="248.9" width="3.1" height="3.1" opacity="0.72"/>
  <rect x="238.4" y="248.9" width="3.1" height="3.1" opacity="0.46"/>
  <rect x="241.6" y="248.9" width="31.5" height="3.1" opacity="1.0"/>
  <rect x="273.1" y="248.9" width="3.1" height="3.1" opacity="0.72"/>
  <rect x="150.2" y="252.0" width="3.1" height="3.1" opacity="0.24"/>
  <rect x="153.4" y="252.0" width="3.1" height="3.1" opacity="0.72"/>
  <rect x="156.6" y="252.0" width="25.2" height="3.1" opacity="1.0"/>
  <rect x="181.8" y="252.0" width="3.1" height="3.1" opacity="0.24"/>
  <rect x="232.2" y="252.0" width="3.1" height="3.1" opacity="0.46"/>
  <rect x="235.3" y="252.0" width="40.9" height="3.1" opacity="1.0"/>
  <rect x="276.2" y="252.0" width="3.1" height="3.1" opacity="0.72"/>
  <rect x="150.2" y="255.2" width="3.1" height="3.1" opacity="0.24"/>
  <rect x="153.4" y="255.2" width="12.6" height="3.1" opacity="1.0"/>
  <rect x="166.0" y="255.2" width="3.1" height="3.1" opacity="0.46"/>
  <rect x="169.2" y="255.2" width="3.1" height="3.1" opacity="0.72"/>
  <rect x="172.3" y="255.2" width="6.3" height="3.1" opacity="1.0"/>
  <rect x="178.6" y="255.2" width="3.1" height="3.1" opacity="0.46"/>
  <rect x="229.0" y="255.2" width="3.1" height="3.1" opacity="0.72"/>
  <rect x="232.2" y="255.2" width="50.4" height="3.1" opacity="1.0"/>
  <rect x="282.5" y="255.2" width="12.6" height="3.1" opacity="0.46"/>
  <rect x="295.1" y="255.2" width="6.3" height="3.1" opacity="0.72"/>
  <rect x="301.4" y="255.2" width="3.1" height="3.1" opacity="0.24"/>
  <rect x="156.6" y="258.3" width="3.1" height="3.1" opacity="0.46"/>
  <rect x="159.7" y="258.3" width="3.1" height="3.1" opacity="0.72"/>
  <rect x="172.3" y="258.3" width="3.1" height="3.1" opacity="0.46"/>
  <rect x="175.4" y="258.3" width="3.1" height="3.1" opacity="0.72"/>
  <rect x="229.0" y="258.3" width="3.1" height="3.1" opacity="0.72"/>
  <rect x="232.2" y="258.3" width="69.3" height="3.1" opacity="1.0"/>
  <rect x="301.4" y="258.3" width="3.1" height="3.1" opacity="0.24"/>
  <rect x="232.2" y="261.5" width="3.1" height="3.1" opacity="0.24"/>
  <rect x="235.3" y="261.5" width="3.1" height="3.1" opacity="0.72"/>
  <rect x="238.4" y="261.5" width="59.9" height="3.1" opacity="1.0"/>
  <rect x="298.3" y="261.5" width="3.1" height="3.1" opacity="0.72"/>
  <rect x="241.6" y="264.6" width="3.1" height="3.1" opacity="0.46"/>
  <rect x="244.8" y="264.6" width="50.4" height="3.1" opacity="1.0"/>
  <rect x="295.1" y="264.6" width="3.1" height="3.1" opacity="0.72"/>
  <rect x="298.3" y="264.6" width="3.1" height="3.1" opacity="0.24"/>
  <rect x="244.8" y="267.8" width="3.1" height="3.1" opacity="0.24"/>
  <rect x="247.9" y="267.8" width="31.5" height="3.1" opacity="1.0"/>
  <rect x="279.4" y="267.8" width="6.3" height="3.1" opacity="0.72"/>
  <rect x="285.7" y="267.8" width="3.1" height="3.1" opacity="0.46"/>
  <rect x="288.9" y="267.8" width="3.1" height="3.1" opacity="0.24"/>
  <rect x="244.8" y="270.9" width="3.1" height="3.1" opacity="0.46"/>
  <rect x="247.9" y="270.9" width="28.3" height="3.1" opacity="1.0"/>
  <rect x="276.2" y="270.9" width="3.1" height="3.1" opacity="0.24"/>
  <rect x="244.8" y="274.1" width="3.1" height="3.1" opacity="0.72"/>
  <rect x="247.9" y="274.1" width="22.1" height="3.1" opacity="1.0"/>
  <rect x="269.9" y="274.1" width="3.1" height="3.1" opacity="0.46"/>
  <rect x="244.8" y="277.2" width="18.9" height="3.1" opacity="1.0"/>
  <rect x="263.6" y="277.2" width="3.1" height="3.1" opacity="0.72"/>
  <rect x="266.8" y="277.2" width="3.1" height="3.1" opacity="0.24"/>
  <rect x="244.8" y="280.4" width="3.1" height="3.1" opacity="0.46"/>
  <rect x="247.9" y="280.4" width="12.6" height="3.1" opacity="1.0"/>
  <rect x="260.5" y="280.4" width="3.1" height="3.1" opacity="0.46"/>
  <rect x="247.9" y="283.5" width="3.1" height="3.1" opacity="0.24"/>
  <rect x="251.0" y="283.5" width="6.3" height="3.1" opacity="0.72"/>
  <rect x="257.4" y="283.5" width="3.1" height="3.1" opacity="0.24"/>
  </g>
<text x="423" y="74" font-size="13" fill="#8b949e"><tspan fill="#a78bfa">~</tspan> $ fastfetch</text>
<text x="423" y="106" font-size="16" font-weight="700" fill="#a78bfa">yurii@github</text>
<line x1="423" y1="116" x2="940" y2="116" stroke="#30363d"/>
<text x="423" y="140" font-size="13" font-weight="600" fill="#a78bfa">Name</text>
<text x="555" y="140" font-size="13" fill="#e6edf3">Yurii Dmytrenko</text>
<text x="423" y="164" font-size="13" font-weight="600" fill="#a78bfa">Handle</text>
<text x="555" y="164" font-size="13" fill="#e6edf3">YuraItDeveloper14</text>
<text x="423" y="188" font-size="13" font-weight="600" fill="#a78bfa">Location</text>
<text x="555" y="188" font-size="13" fill="#e6edf3">Ukraine</text>
<text x="423" y="212" font-size="13" font-weight="600" fill="#a78bfa">Role</text>
<text x="555" y="212" font-size="13" fill="#e6edf3">Full-stack developer</text>
<rect x="423" y="248" width="20" height="20" rx="3" fill="#f87171"/>
<rect x="449" y="248" width="20" height="20" rx="3" fill="#fb923c"/>
<rect x="475" y="248" width="20" height="20" rx="3" fill="#fbbf24"/>
<rect x="501" y="248" width="20" height="20" rx="3" fill="#4ade80"/>
<rect x="527" y="248" width="20" height="20" rx="3" fill="#22d3ee"/>
<rect x="553" y="248" width="20" height="20" rx="3" fill="#60a5fa"/>
<rect x="579" y="248" width="20" height="20" rx="3" fill="#a78bfa"/>
<rect x="605" y="248" width="20" height="20" rx="3" fill="#f472b6"/>
<rect x="641" y="250" width="9" height="17" fill="#e6edf3"><animate attributeName="opacity" values="1;1;0;0" dur="1.1s" repeatCount="indefinite"/></rect>
</svg>